<?xml version="1.0" encoding="UTF-8"?>
<svg width="200px" height="200px" viewBox="0 0 200 200" version="1.1" xmlns="http://www.w3.org/2000/svg" xmlns:xlink="http://www.w3.org/1999/xlink">
    <title>Selo-5-anos-garantia</title>
    <g id="Page-1" stroke="none" stroke-width="1" fill="none" fill-rule="evenodd">
        <g id="Selo-5-anos-garantia" fill-rule="nonzero">
            <circle id="Oval" fill="#009C91" cx="100" cy="100" r="83"></circle>
            <path d="M100,183.9 C53.7,183.9 16.1,146.3 16.1,100 C16.1,53.7 53.7,16 100,16 C146.3,16 183.9,53.6 183.9,99.9 C183.9,146.2 146.2,183.9 100,183.9 Z M100,17.8 C54.7,17.8 17.8,54.7 17.8,100 C17.8,145.3 54.7,182.2 100,182.2 C145.3,182.2 182.2,145.3 182.2,100 C182.1,54.6 145.3,17.8 100,17.8 Z" id="Shape" fill="#FFFFFF"></path>
            <circle id="Oval" fill="#00C74B" cx="100" cy="100" r="100"></circle>
            <path d="M100,160.9 C66.4,160.9 39.1,133.6 39.1,100 C39.1,66.4 66.4,39.1 100,39.1 C133.6,39.1 160.9,66.4 160.9,100 C160.9,133.6 133.6,160.9 100,160.9 Z M100,40.6 C67.3,40.6 40.6,67.2 40.6,100 C40.6,132.7 67.2,159.4 100,159.4 C132.7,159.4 159.4,132.8 159.4,100 C159.4,67.3 132.7,40.6 100,40.6 Z" id="Shape" fill="#FFFFFF" opacity="0.7"></path>
            <path d="M185.9,119.9 L183.7,119.4 C185.3,112.8 186.1,105.9 186.1,99.2 C186.1,51.7 147.4,13 99.9,13 C52.4,13 13.7,51.7 13.7,99.2 C13.7,106 14.5,112.8 16.1,119.4 L13.9,119.9 C12.3,113.1 11.4,106.1 11.4,99.1 C11.4,50.3 51.1,10.7 99.8,10.7 C148.6,10.7 188.2,50.4 188.2,99.1 C188.4,106.1 187.6,113.1 185.9,119.9 Z" id="Path" fill="#FFFFFF" opacity="0.7"></path>
            <g id="Group" opacity="0.75" transform="translate(19.000000, 127.000000)" fill="#257775">
                <path d="M17.8,14.9 C20,13.3 20.4,11.3 19.3,9.3 C17.6,6 14.8,5.9 10.8,7.9 C5.7,10.5 5.5,13.3 7,16.3 C7.8,17.9 8.7,19 9.7,19.7 L11.8,18.7 L9.3,13.7 L13.4,11.6 L18.7,22 L9.9,26.5 C7.9,25.2 4.9,22.8 2.5,18 C-0.9,11.3 0.4,5.6 7.6,1.9 C14,-1.3 19.7,-0.3 23.7,7.5 C26.6,13.2 25.6,17.5 21.6,20.1 L17.8,14.9 L17.8,14.9 Z M35.1,23.9 L39.9,28.3 L31,51.2 L25.9,46.4 L27.7,42.4 L21.9,37 L18,39.1 L12.9,34.4 L35.1,23.9 L35.1,23.9 Z M26.5,34.5 L29.8,37.6 L32.8,31.1 L26.5,34.5 Z M47.5,34.7 L57.5,39 C64.2,41.9 65.6,44.8 63.3,50.1 C62.1,52.9 60,54.3 57.2,54.5 L59.1,64.6 L52.1,61.6 L50.9,53.5 L47.6,52.1 L44.8,58.5 L38.5,55.8 L47.5,34.7 L47.5,34.7 Z M49.6,47.3 L52.6,48.6 C55,49.6 55.9,49.8 57,47.4 C57.9,45.3 57.4,44.2 55.4,43.4 L52,41.9 L49.6,47.3 L49.6,47.3 Z M75.8,43.8 L82.3,44.2 L89.8,67.6 L82.8,67.2 L81.7,62.9 L73.8,62.4 L72.1,66.5 L65.2,66.1 L75.8,43.8 L75.8,43.8 Z M75.9,57.4 L80.4,57.7 L78.6,50.8 L75.9,57.4 Z M98.7,66.4 L92.2,44.5 L97.7,42.9 L110.6,52.5 L107,40.2 L113.1,38.4 L119.6,60.3 L113.9,62 L101.4,52.9 L104.9,64.7 L98.7,66.4 L98.7,66.4 Z M123.5,37.4 L117.6,41.7 L114.6,37.5 L131.8,25 L134.8,29.2 L128.9,33.5 L139.3,47.8 L133.9,51.7 L123.5,37.4 L123.5,37.4 Z M150.9,37 L133.3,22.4 L137.6,17.2 L155.2,31.8 L150.9,37 Z M143.6,7.8 L146.4,1.9 L170.9,3.4 L167.9,9.8 L163.5,9.3 L160.2,16.5 L163.4,19.5 L160.5,25.8 L143.6,7.8 L143.6,7.8 Z M156.3,12.6 L158.2,8.5 L151.1,7.6 L156.3,12.6 Z" id="Shape"></path>
            </g>
            <path d="M72.8,129.1 L77.1,129.1 L83,144.1 L78.4,144.1 L77.5,141.3 L72.3,141.3 L71.4,144.1 L66.9,144.1 L72.8,129.1 Z M73.5,138.1 L76.5,138.1 L75.1,133.6 L73.5,138.1 Z M84.7,144.2 L84.7,129.2 L88.5,129.2 L94.9,137.7 L94.9,129.2 L99.1,129.2 L99.1,144.2 L95.2,144.2 L89,136.1 L89,144.2 L84.7,144.2 Z M109.4,128.9 C114.2,128.9 117.1,131.4 117.1,136.6 C117.1,141.2 115.1,144.4 109.2,144.4 C104.1,144.4 101.5,141.9 101.5,136.8 C101.6,131.5 104.1,128.9 109.4,128.9 Z M109.3,141.2 C111.8,141.2 112.6,139.9 112.6,136.6 C112.6,133.5 111.8,132 109.5,132 C107,132 106.2,133.3 106.2,136.7 C106.2,140 107.1,141.2 109.3,141.2 Z M120.3,139.7 C121.6,140.3 124.3,141.1 126.1,141.1 C127.4,141.1 127.8,140.9 127.8,139.8 C127.8,138.7 127.4,138.6 124.8,137.9 C121.1,137 119.4,136 119.4,133.1 C119.4,130.4 121.4,128.8 125.4,128.8 C128,128.8 130.3,129.5 132,130.2 L130.6,133.3 C128.9,132.5 126.9,132 125.3,132 C124.4,132 123.9,132.3 123.9,133 C123.9,134 124.7,134.2 126.9,134.7 C131.1,135.7 132.4,137 132.4,139.5 C132.5,142.6 130.3,144.2 126,144.2 C123.4,144.2 120.8,143.6 119,142.8 L120.3,139.7 L120.3,139.7 Z" id="Shape" fill="#FFFFFF"></path>
            <path d="M34.4,138.5 C36.6,136.9 37,134.9 35.9,132.9 C34.2,129.6 31.4,129.5 27.4,131.5 C22.3,134.1 22.1,136.9 23.6,139.9 C24.4,141.5 25.3,142.6 26.3,143.3 L28.4,142.3 L25.9,137.3 L30,135.2 L35.3,145.6 L26.5,150.1 C24.5,148.8 21.5,146.4 19.1,141.6 C15.7,134.9 17,129.2 24.2,125.5 C30.6,122.3 36.3,123.3 40.3,131.1 C43.2,136.8 42.2,141.1 38.2,143.7 L34.4,138.5 L34.4,138.5 Z M51.6,147.5 L56.4,151.9 L47.5,174.8 L42.4,170 L44.2,166 L38.4,160.6 L34.5,162.7 L29.4,158 L51.6,147.5 L51.6,147.5 Z M43.1,158.1 L46.4,161.2 L49.4,154.7 L43.1,158.1 Z M64.1,158.3 L74.1,162.6 C80.8,165.5 82.2,168.4 79.9,173.7 C78.7,176.5 76.6,177.9 73.8,178.1 L75.7,188.2 L68.7,185.2 L67.5,177.1 L64.2,175.7 L61.4,182.1 L55.1,179.4 L64.1,158.3 L64.1,158.3 Z M66.2,170.8 L69.2,172.1 C71.6,173.1 72.5,173.3 73.6,170.9 C74.5,168.8 74,167.7 72,166.9 L68.6,165.4 L66.2,170.8 L66.2,170.8 Z M92.4,167.4 L98.9,167.8 L106.4,191.2 L99.4,190.8 L98.3,186.5 L90.4,186 L88.7,190.1 L81.8,189.7 L92.4,167.4 L92.4,167.4 Z M92.5,181 L97,181.3 L95.2,174.4 L92.5,181 Z M115.3,189.9 L108.8,168 L114.3,166.4 L127.2,176 L123.6,163.7 L129.7,161.9 L136.2,183.8 L130.5,185.5 L118,176.4 L121.5,188.2 L115.3,189.9 L115.3,189.9 Z M140.1,161 L134.2,165.3 L131.2,161.1 L148.4,148.6 L151.4,152.8 L145.5,157.1 L155.9,171.4 L150.5,175.3 L140.1,161 L140.1,161 Z M167.4,160.5 L149.8,145.9 L154.1,140.7 L171.7,155.3 L167.4,160.5 Z M160.1,131.4 L162.9,125.5 L187.4,127 L184.4,133.4 L180,132.9 L176.7,140.1 L179.9,143.1 L177,149.4 L160.1,131.4 L160.1,131.4 Z M172.8,136.2 L174.7,132.1 L167.6,131.2 L172.8,136.2 Z" id="Shape" fill="#FFFFFF"></path>
            <g id="Group-6" transform="translate(66.000000, 28.000000)">
                <path d="M36.7508987,93.5292969 C43.1174352,93.5292969 48.6364781,92.2683919 53.3080276,89.746582 C57.9795771,87.2247721 61.6072627,83.6177572 64.1910843,78.9255371 C66.7749059,74.2333171 68.0668167,68.9933268 68.0668167,63.2055664 C68.0668167,53.6144206 65.6586949,46.162679 60.8424515,40.8503418 C56.026208,35.5380046 49.1325719,32.8818359 40.1615433,32.8818359 C37.8464391,32.8818359 35.4796585,33.2125651 33.0612015,33.8740234 C30.6427444,34.5354818 28.6893753,35.300293 27.201094,36.168457 L27.201094,36.168457 L29.2474808,18.2470703 L65.0282425,18.2470703 L65.0282425,2 L12.2562698,2 L6.73722685,48.1367188 L23.3563675,52.043457 C25.7541539,48.9015299 29.3921748,47.3305664 34.27043,47.3305664 C42.8693883,47.3305664 47.1688675,52.1468099 47.1688675,61.7792969 C47.1688675,72.1972656 43.6548701,77.40625 36.6268753,77.40625 C33.5262893,77.40625 31.02515,76.4347331 29.1234573,74.4916992 C27.2217646,72.5486654 26.1675654,69.9235026 25.9608597,66.6162109 L25.9608597,66.6162109 L5.00089872,66.6162109 C4.95955757,71.742513 6.34448596,76.3417155 9.15568388,80.4138184 C11.9668818,84.4859212 15.8529495,87.68986 20.813887,90.0256348 C25.7748245,92.3614095 31.0871617,93.5292969 36.7508987,93.5292969 Z" id="5" fill="#257775"></path>
                <path d="M31.7508987,91.5292969 C38.1174352,91.5292969 43.6364781,90.2683919 48.3080276,87.746582 C52.9795771,85.2247721 56.6072627,81.6177572 59.1910843,76.9255371 C61.7749059,72.2333171 63.0668167,66.9933268 63.0668167,61.2055664 C63.0668167,51.6144206 60.6586949,44.162679 55.8424515,38.8503418 C51.026208,33.5380046 44.1325719,30.8818359 35.1615433,30.8818359 C32.8464391,30.8818359 30.4796585,31.2125651 28.0612015,31.8740234 C25.6427444,32.5354818 23.6893753,33.300293 22.201094,34.168457 L22.201094,34.168457 L24.2474808,16.2470703 L60.0282425,16.2470703 L60.0282425,0 L7.25626981,0 L1.73722685,46.1367188 L18.3563675,50.043457 C20.7541539,46.9015299 24.3921748,45.3305664 29.27043,45.3305664 C37.8693883,45.3305664 42.1688675,50.1468099 42.1688675,59.7792969 C42.1688675,70.1972656 38.6548701,75.40625 31.6268753,75.40625 C28.5262893,75.40625 26.02515,74.4347331 24.1234573,72.4916992 C22.2217646,70.5486654 21.1675654,67.9235026 20.9608597,64.6162109 L20.9608597,64.6162109 L0.000898720562,64.6162109 C-0.0404424253,69.742513 1.34448596,74.3417155 4.15568388,78.4138184 C6.96688179,82.4859212 10.8529495,85.68986 15.813887,88.0256348 C20.7748245,90.3614095 26.0871617,91.5292969 31.7508987,91.5292969 Z" id="5" fill="#FFFFFF"></path>
            </g>
        </g>
    </g>
</svg>